<svg width="29" height="29" viewBox="0 0 29 29" fill="none" xmlns="http://www.w3.org/2000/svg">
<path d="M2.66699 15.3334L15.0786 15.3347C13.5849 16.8917 12.667 19.0054 12.667 21.3334C12.667 22.7831 13.0229 24.1497 13.6522 25.3505C12.252 25.8174 10.7078 26.0001 9.33366 26.0001C5.70415 26.0001 0.886586 24.7254 0.674264 20.3063L0.666992 20.0001V17.3334C0.666992 16.2944 1.46068 15.4395 2.47447 15.3426L2.66699 15.3334ZM9.33366 0.666748C12.647 0.666748 15.3337 3.35341 15.3337 6.66675C15.3337 9.98008 12.647 12.6667 9.33366 12.6667C6.02033 12.6667 3.33366 9.98008 3.33366 6.66675C3.33366 3.35341 6.02033 0.666748 9.33366 0.666748ZM17.0366 16.6339C17.4563 18.0876 16.5838 19.5988 15.115 19.9622L14.3361 20.1549C14.2762 20.5385 14.2451 20.9321 14.2451 21.3332C14.2451 21.7527 14.2792 22.1641 14.3446 22.5644L15.0638 22.7376C16.5472 23.0948 17.429 24.6215 16.9972 26.0849L16.7488 26.9266C17.3343 27.4408 18.0016 27.8583 18.7276 28.1554L19.3853 27.4637C20.4368 26.3581 22.1998 26.3584 23.2508 27.4644L23.9158 28.1641C24.6405 27.8704 25.3071 27.4568 25.8928 26.9469L25.6288 26.0323C25.2091 24.5786 26.0816 23.0674 27.5504 22.704L28.3287 22.5115C28.3886 22.1279 28.4197 21.7343 28.4197 21.3332C28.4197 20.9135 28.3856 20.5021 28.3202 20.1017L27.6016 19.9286C26.1182 19.5714 25.2365 18.0447 25.6683 16.5813L25.9165 15.7402C25.331 15.2259 24.6637 14.8082 23.9376 14.5111L23.2801 15.2025C22.2287 16.3082 20.4657 16.3079 19.4146 15.2019L18.7496 14.502C18.0248 14.7956 17.3582 15.2092 16.7725 15.719L17.0366 16.6339ZM21.3324 23.3332C20.2649 23.3332 19.3995 22.4377 19.3995 21.3332C19.3995 20.2286 20.2649 19.3332 21.3324 19.3332C22.3999 19.3332 23.2653 20.2286 23.2653 21.3332C23.2653 22.4377 22.3999 23.3332 21.3324 23.3332Z" fill="white"/>
</svg>
