<svg width="42" height="32" viewBox="0 0 42 32" fill="none" xmlns="http://www.w3.org/2000/svg">
<g style="mix-blend-mode:lighten">
<path d="M17.5 16C17.5 20.3487 16.5074 24.261 14.9282 27.0686C13.3401 29.8918 11.2244 31.5 9 31.5C6.77558 31.5 4.65991 29.8918 3.07183 27.0686C1.49256 24.261 0.5 20.3487 0.5 16C0.5 11.6513 1.49256 7.73901 3.07183 4.93142C4.65991 2.10816 6.77558 0.5 9 0.5C11.2244 0.500001 13.3401 2.10816 14.9282 4.93142C16.5074 7.73901 17.5 11.6513 17.5 16Z" stroke="white" stroke-opacity="0.2"/>
</g>
<g style="mix-blend-mode:lighten">
<path d="M23.25 16C23.25 20.0296 22.2685 23.6414 20.7208 26.2207C19.1643 28.815 17.1183 30.25 15 30.25C12.8817 30.25 10.8357 28.815 9.27916 26.2207C7.73154 23.6414 6.75 20.0296 6.75 16C6.75 11.9704 7.73154 8.35864 9.27916 5.77927C10.8357 3.18497 12.8817 1.75 15 1.75C17.1183 1.75 19.1643 3.18497 20.7208 5.77927C22.2685 8.35864 23.25 11.9704 23.25 16Z" stroke="white" stroke-opacity="0.4" stroke-width="1.5"/>
</g>
<g style="mix-blend-mode:lighten">
<path d="M29 16C29 19.7032 28.0331 23.0093 26.5228 25.3587C25.0056 27.7189 23.0297 29 21 29C18.9703 29 16.9944 27.7189 15.4772 25.3587C13.9669 23.0093 13 19.7032 13 16C13 12.2968 13.9669 8.99069 15.4772 6.64126C16.9944 4.28115 18.9703 3 21 3C23.0297 3 25.0056 4.28115 26.5228 6.64126C28.0331 8.99069 29 12.2968 29 16Z" stroke="white" stroke-opacity="0.6" stroke-width="2"/>
</g>
<g style="mix-blend-mode:lighten">
<path d="M34.75 16C34.75 19.3678 33.8029 22.3624 32.3362 24.4809C30.8662 26.6043 28.9591 27.75 27 27.75C25.0409 27.75 23.1338 26.6043 21.6638 24.4809C20.1971 22.3624 19.25 19.3678 19.25 16C19.25 12.6322 20.1971 9.63764 21.6638 7.51912C23.1338 5.39572 25.0409 4.25 27 4.25C28.9591 4.25 30.8662 5.39572 32.3362 7.51913C33.8029 9.63764 34.75 12.6322 34.75 16Z" stroke="white" stroke-opacity="0.8" stroke-width="2.5"/>
</g>
<g style="mix-blend-mode:lighten">
<path d="M40.5 16C40.5 19.0205 39.5799 21.6974 38.164 23.5853C36.7484 25.4727 34.9073 26.5 33 26.5C31.0927 26.5 29.2516 25.4727 27.836 23.5853C26.4201 21.6974 25.5 19.0205 25.5 16C25.5 12.9795 26.4201 10.3026 27.836 8.41472C29.2516 6.52728 31.0927 5.5 33 5.5C34.9073 5.5 36.7484 6.52728 38.164 8.41472C39.5799 10.3026 40.5 12.9795 40.5 16Z" stroke="white" stroke-width="3"/>
</g>
</svg>
