<svg viewBox="0 0 20 20" fill="none" xmlns="http://www.w3.org/2000/svg">
<path d="M7.35631 1.63451C8.44557 -0.544838 11.5544 -0.544836 12.6437 1.63451L19.6841 15.7208C20.6668 17.6868 19.2377 20 17.0405 20H2.95955C0.762308 20 -0.666776 17.6868 0.315858 15.7208L7.35631 1.63451Z" fill="#E5A900"/>
<path d="M10.8408 13.1846H9.17285L8.82422 6.50586H11.1895L10.8408 13.1846ZM8.79688 15.5225C8.79688 15.1396 8.89941 14.8503 9.10449 14.6543C9.30957 14.4583 9.60807 14.3604 10 14.3604C10.3783 14.3604 10.6699 14.4606 10.875 14.6611C11.0846 14.8617 11.1895 15.1488 11.1895 15.5225C11.1895 15.8825 11.0846 16.1673 10.875 16.377C10.6654 16.582 10.3737 16.6846 10 16.6846C9.61719 16.6846 9.32096 16.5843 9.11133 16.3838C8.90169 16.1787 8.79688 15.8916 8.79688 15.5225Z" fill="white"/>
</svg>
